<svg id="Filled_Expand" enable-background="new 0 0 50 50" viewBox="0 0 50 50" xmlns="http://www.w3.org/2000/svg"><g><g><path d="m1 1h48v48h-48z" fill="#e7e7ff"/><path d="m1 1v12h25l4-3h19v-9z" fill="#8c7689"/><circle cx="7" cy="7" fill="#63d8aa" r="2"/><circle cx="15" cy="7" fill="#fb8098" r="2"/><circle cx="23" cy="7" fill="#f1ce85" r="2"/><path d="m34 18h-18c-1.66 0-3 1.34-3 3v23l9-5 9 5v-14z" fill="#63d8aa"/><path d="m37 30h-6v-9c0-1.66 1.34-3 3-3 1.66 0 3 1.34 3 3z" fill="#f1ce85"/></g><g><path d="m12 21v23c0 .76.82 1.24 1.49.87l8.51-4.73 8.51 4.73c.67.37 1.49-.11 1.49-.87v-13h5c.55 0 1-.45 1-1v-9c0-2.21-1.79-4-4-4h-18c-2.21 0-4 1.79-4 4zm20 0c0-1.1.9-2 2-2s2 .9 2 2v8h-4zm-2 0v21.3l-7.51-4.17c-.3-.17-.67-.17-.97 0l-7.52 4.17v-21.3c0-1.1.9-2 2-2h14.56c-.35.59-.56 1.27-.56 2z"/><path d="m49 0h-48c-.55 0-1 .45-1 1v48c0 .55.45 1 1 1h48c.55 0 1-.45 1-1v-48c0-.55-.45-1-1-1zm-1 48h-46v-34h24c.22 0 .43-.07.6-.2l3.73-2.8h17.67zm0-39h-18c-.22 0-.43.07-.6.2l-3.73 2.8h-23.67v-10h46z"/><path d="m7 10c1.65 0 3-1.35 3-3s-1.35-3-3-3-3 1.35-3 3 1.35 3 3 3zm0-4c.55 0 1 .45 1 1s-.45 1-1 1-1-.45-1-1 .45-1 1-1z"/><path d="m15 10c1.65 0 3-1.35 3-3s-1.35-3-3-3-3 1.35-3 3 1.35 3 3 3zm0-4c.55 0 1 .45 1 1s-.45 1-1 1-1-.45-1-1 .45-1 1-1z"/><path d="m23 10c1.65 0 3-1.35 3-3s-1.35-3-3-3-3 1.35-3 3 1.35 3 3 3zm0-4c.55 0 1 .45 1 1s-.45 1-1 1-1-.45-1-1 .45-1 1-1z"/></g></g></svg>